<svg width="119" height="34" viewBox="0 0 119 34" xmlns="http://www.w3.org/2000/svg"><title>TCH_Logo_dark_375</title><path d="M52.352 18.287c1.336 0 2.273-.672 2.862-2.147l.641-1.582h-15.192c-2.621 0-8.505 3.487-8.505 5.792.053 1.743 1.577 3.781 3.075 4.8l2.435-3.888c-.669-.402-1.445-.99-1.472-1.77 0-.723.803-1.205 1.498-1.205h4.44l-6.246 15.434h4.146c.589 0 .989-.32 1.284-.966l5.871-14.468h5.162zm64.648 1.74c-1.926 2.1-3.829 2.619-6.924 2.619-.589-1.018-1.929-1.528-3.665-1.528-3.129 0-4.496 2.145-7.519 2.145-2.58 0-5.184-1.635-6.897-1.768l-1.043 1.553c.855.51 1.338 1.235 1.338 2.521 0 2.146-2.006 5.739-4.146 5.739-.855 0-1.122-1.047-.641-2.227l5.822-14.523h-2.379c-1.696 0-2.22.671-2.809 2.039l-3.228 8.033c-1.686 4.022-4.254 5.953-5.724 5.953-.804 0-.99-.59-.668-1.368l3.128-7.721h-2.622c-.854 0-1.737.241-2.46 1.929l-.669 1.635c-1.63 3.996-3.985 5.525-5.348 5.525-.723 0-1.044-.456-.669-1.394l1.631-4.022c.83-2.334.804-3.916-1.524-3.916-2.461 0-4.708 2.2-5.965 3.619l4.118-10.313h-2.55c-1.237 0-1.998.323-2.639 1.932l-3.182 8.14c-1.713 4.263-6.313 6.195-8.078 6.195-1.176 0-1.766-.536-1.766-1.61 0-2.038 2.033-4.478 4.306-4.478h.829c.936 0 1.579-.482 2.006-1.475l.75-1.768h-2.889c-5.109 0-9.762 4.638-9.575 9.598.053 1.877 1.204 2.87 3.29 2.87 2.996 0 6.285-1.556 9.175-4.532l-1.739 4.29h2.756c1.15 0 1.845-.537 2.434-1.93 1.39-3.299 3.023-6.892 5.055-6.892.616 0 .909.483.616 1.207l-1.553 3.779c-.935 2.281-.776 4.104 1.713 4.104 2.058 0 4.332-1.179 6.66-3.595-.589 2.092-.294 3.595 2.006 3.595 2.219 0 4.868-1.53 7.274-4.211-.4 2.574 1.018 4.184 3.878 4.184 4.654 0 9.47-4.343 9.47-9.063 0 0 .48.054.935.054.749 0 1.896-.269 2.537-.537-1.149 1.421-1.899 3.406-1.899 5.444 0 2.52 1.473 4.13 4.068 4.13 4.577 0 7.598-4.265 8.089-7.732-3.692.273-5.993 1.777-7.006 4.898-.254.781-.494 1.169-1.143 1.169-.455 0-.838-.324-.838-.86 0-1.21 1.672-2.609 2.491-4.242.898-1.789.873-4.384 2.314-4.384.454 0 .724.336.724.806 0 .896-.912 2.006-1.554 3.064 1.968-1.248 3.525-1.391 5.315-1.57 3.931-.393 6.113-1.437 6.585-5.112m-36.081-1.054h-2.591l1.027-2.483c.563-1.341 1.449-1.932 2.572-1.932h2.536l-1.004 2.485c-.508 1.286-1.339 1.93-2.541 1.93m-67.176-.986c0-.73-.377-1.089-.957-1.089-2.137 0-2.222 4.254-3.237 6.371-1.682 3.507-3.892 5.182-3.892 6.766 0 .906.546 1.281 1.133 1.281.942 0 1.246-.483 1.599-1.675 1.734-5.844 4.991-7.493 10.541-7.756-.444 4.973-5.017 12.115-12.194 12.115-3.993 0-6.286-2.246-6.286-6.195 0-6.384 5.438-13.552 12.642-13.552 2.509 0 4.551.767 5.392 2.19 8.475.293 11.304-2.694 11.304-4.97 0-1.804-1.664-2.414-4.337-2.414-6.176 0-11.949 3.794-19.848 3.794-3.507 0-5.603-1.211-5.603-3.293 0-6.493 18.374-2.61 18.374-8.426 0-.433-.242-.837-.539-1.135.919.189 3.205.699 3.205 2.377 0 5.735-13.82 2.803-13.82 6.346 0 .839.726 1.296 2.103 1.296 5.476 0 11.235-4.174 16.215-4.174 5.064 0 6.748 2.824 6.748 5.444 0 4.181-4.323 8.88-13.28 9.257-3.51.147-5.305.458-7.391 1.8 1.07-1.695 2.13-2.966 2.13-4.357z" fill="#C0A468" fill-rule="nonzero"/></svg>